<svg width="436" height="437" viewBox="0 0 436 437" fill="none" xmlns="http://www.w3.org/2000/svg">
<g opacity="0.1">
<path d="M435.135 201.726C435.222 202.855 435.3 203.984 435.369 205.114L261.345 431.733C260.235 431.959 259.124 432.175 258.011 432.383L435.135 201.726Z" fill="#E7EAFF"/>
<path d="M433.419 186.425C433.573 187.464 433.719 188.505 433.858 189.546L245.912 434.295C244.87 434.43 243.827 434.557 242.783 434.677L433.419 186.425Z" fill="#E7EAFF"/>
<path d="M430.843 172.245C431.051 173.212 431.253 174.179 431.449 175.148L231.378 435.687C230.391 435.748 229.404 435.803 228.417 435.851L430.843 172.245Z" fill="#E7EAFF"/>
<path d="M427.548 159.001C427.803 159.905 428.052 160.811 428.296 161.718L217.587 436.109C216.647 436.109 215.708 436.102 214.768 436.089L427.548 159.001Z" fill="#E7EAFF"/>
<path d="M423.633 146.562C423.929 147.413 424.22 148.265 424.505 149.119L204.434 435.702C203.535 435.647 202.637 435.586 201.739 435.52L423.633 146.562Z" fill="#E7EAFF"/>
<path d="M419.172 134.837C419.504 135.639 419.831 136.444 420.154 137.25L191.842 434.565C190.98 434.461 190.118 434.353 189.257 434.239L419.172 134.837Z" fill="#E7EAFF"/>
<path d="M414.218 123.753C414.583 124.512 414.944 125.273 415.3 126.036L179.753 432.772C178.924 432.625 178.095 432.474 177.267 432.317L414.218 123.753Z" fill="#E7EAFF"/>
<path d="M408.813 113.256C409.208 113.975 409.6 114.696 409.987 115.419L168.122 430.382C167.323 430.195 166.526 430.004 165.728 429.808L408.813 113.256Z" fill="#E7EAFF"/>
<path d="M402.99 103.303C403.414 103.985 403.834 104.669 404.249 105.355L156.916 427.44C156.146 427.216 155.377 426.987 154.608 426.753L402.99 103.303Z" fill="#E7EAFF"/>
<path d="M396.774 93.8616C397.225 94.5085 397.672 95.1573 398.114 95.8083L146.107 423.98C145.364 423.72 144.621 423.456 143.88 423.188L396.774 93.8616Z" fill="#E7EAFF"/>
<path d="M390.187 84.9044C390.663 85.5178 391.135 86.1334 391.604 86.751L135.674 420.031C134.956 419.738 134.24 419.441 133.524 419.139L390.187 84.9044Z" fill="#E7EAFF"/>
<path d="M383.245 76.4097C383.745 76.9912 384.242 77.5748 384.735 78.1606L125.6 415.615C124.906 415.29 124.214 414.961 123.523 414.628L383.245 76.4097Z" fill="#E7EAFF"/>
<path d="M375.96 68.3603C376.484 68.9108 377.005 69.4636 377.522 70.0186L115.869 410.75C115.2 410.394 114.531 410.034 113.864 409.67L375.96 68.3603Z" fill="#E7EAFF"/>
<path d="M368.344 60.7431C368.891 61.2635 369.434 61.7863 369.975 62.3114L106.473 405.451C105.826 405.065 105.181 404.675 104.537 404.281L368.344 60.7431Z" fill="#E7EAFF"/>
<path d="M360.404 53.5469C360.973 54.038 361.54 54.5315 362.102 55.0273L97.4018 399.728C96.7773 399.313 96.1544 398.894 95.5329 398.471L360.404 53.5469Z" fill="#E7EAFF"/>
<path d="M352.147 46.7642C352.739 47.2264 353.327 47.6911 353.912 48.1582L88.6492 393.591C88.0467 393.147 87.4459 392.699 86.8466 392.247L352.147 46.7642Z" fill="#E7EAFF"/>
<path d="M343.577 40.3896C344.188 40.822 344.798 41.258 345.407 41.6976L80.2102 387.045C79.6282 386.571 79.0493 386.094 78.4735 385.615L343.577 40.3896Z" fill="#E7EAFF"/>
<path d="M334.691 34.426C335.325 34.8293 335.957 35.2364 336.588 35.647L72.0861 380.089C71.5263 379.586 70.9697 379.08 70.4163 378.572L334.691 34.426Z" fill="#E7EAFF"/>
<path d="M325.483 28.8803C326.14 29.254 326.795 29.6314 327.449 30.0126L64.2815 372.717C63.7444 372.184 63.2104 371.649 62.6798 371.111L325.483 28.8803Z" fill="#E7EAFF"/>
<path d="M315.948 23.7625C316.628 24.1057 317.306 24.4528 317.983 24.8038L56.8039 364.919C56.2898 364.356 55.7792 363.79 55.272 363.223L315.948 23.7625Z" fill="#E7EAFF"/>
<path d="M306.074 19.0846C306.778 19.3964 307.48 19.7122 308.182 20.0321L49.6617 356.684C49.1716 356.09 48.685 355.493 48.2019 354.894L306.074 19.0846Z" fill="#E7EAFF"/>
<path d="M295.851 14.8627C296.579 15.1419 297.307 15.4252 298.033 15.7127L42.867 347.997C42.4017 347.37 41.9401 346.741 41.4821 346.109L295.851 14.8627Z" fill="#E7EAFF"/>
<path d="M285.262 11.1163C286.016 11.3613 286.77 11.6106 287.522 11.8643L36.434 338.839C35.9945 338.178 35.559 337.514 35.1273 336.849L285.262 11.1163Z" fill="#E7EAFF"/>
<path d="M274.289 7.8703C275.071 8.07927 275.852 8.29272 276.632 8.51066L30.381 329.186C29.9688 328.489 29.5608 327.79 29.157 327.089L274.289 7.8703Z" fill="#E7EAFF"/>
<path d="M262.908 5.15553C263.719 5.326 264.529 5.50119 265.339 5.6811L24.7302 319.009C24.3473 318.274 23.9687 317.536 23.5945 316.797L262.908 5.15553Z" fill="#E7EAFF"/>
<path d="M251.089 3.01109C251.932 3.14002 252.774 3.27396 253.615 3.41289L19.5107 308.271C19.1591 307.494 18.8122 306.715 18.47 305.935L251.089 3.01109Z" fill="#E7EAFF"/>
<path d="M238.794 1.48652C239.671 1.57002 240.548 1.65887 241.424 1.75305L14.7583 296.925C14.4409 296.102 14.1287 295.278 13.8214 294.453L238.794 1.48652Z" fill="#E7EAFF"/>
<path d="M225.974 0.64587C226.889 0.678878 227.804 0.717643 228.719 0.762184L10.5196 284.909C10.2402 284.036 9.96631 283.162 9.69803 282.287L225.974 0.64587Z" fill="#E7EAFF"/>
<path d="M212.564 0.573675C213.522 0.54945 214.481 0.531521 215.44 0.519897L6.85574 272.145C6.61929 271.215 6.38904 270.285 6.16489 269.353L212.564 0.573675Z" fill="#E7EAFF"/>
<path d="M198.475 1.38445C199.484 1.29375 200.493 1.21002 201.503 1.1333L3.84894 258.525C3.66226 257.529 3.48245 256.533 3.3096 255.535L198.475 1.38445Z" fill="#E7EAFF"/>
<path d="M183.586 3.2391C184.654 3.06869 185.724 2.9062 186.795 2.75163L1.61392 243.9C1.48669 242.826 1.3674 241.75 1.25607 240.674L183.586 3.2391Z" fill="#E7EAFF"/>
<path d="M167.711 6.37575C168.854 6.10562 170 5.84472 171.147 5.59308L0.318054 228.052C0.264893 226.879 0.221191 225.705 0.18692 224.531L167.711 6.37575Z" fill="#E7EAFF"/>
<path d="M150.562 11.1722C151.805 10.7695 153.05 10.378 154.299 9.99783L0.222778 210.641C0.267609 209.336 0.324158 208.032 0.392426 206.728L150.562 11.1722Z" fill="#E7EAFF"/>
<path d="M131.625 18.2976C133.012 17.701 134.403 17.1192 135.8 16.5523L1.77826 191.08C1.96527 189.584 2.16803 188.089 2.38638 186.596L131.625 18.2976Z" fill="#E7EAFF"/>
<path d="M109.805 29.1774C111.439 28.2444 113.083 27.3338 114.737 26.4456L5.89761 168.18C6.32861 166.353 6.78381 164.529 7.26328 162.71L109.805 29.1774Z" fill="#E7EAFF"/>
<path d="M81.5795 48.3977C83.8642 46.5618 86.1799 44.7774 88.525 43.0447L15.1666 138.574C16.2351 135.862 17.3612 133.164 18.545 130.483L81.5795 48.3977Z" fill="#E7EAFF"/>
<path d="M274.313 428.689L435.776 218.426C435.777 219.67 435.766 220.915 435.745 222.159L277.911 427.695C276.714 428.037 275.515 428.368 274.313 428.689Z" fill="#E7EAFF"/>
<path d="M296.01 421.661C294.692 422.166 293.37 422.657 292.043 423.136L434.99 236.987C434.87 238.391 434.737 239.796 434.59 241.199L296.01 421.661Z" fill="#E7EAFF"/>
<path d="M316.413 412.628C314.903 413.391 313.386 414.136 311.861 414.863L432.115 258.265C431.807 259.926 431.478 261.583 431.131 263.239L316.413 412.628Z" fill="#E7EAFF"/>
<path d="M341.102 398.012C339.197 399.318 337.274 400.591 335.335 401.831L425.586 284.304C424.888 286.498 424.155 288.684 423.385 290.861L341.102 398.012Z" fill="#E7EAFF"/>
<path d="M408.056 324.667L369.808 374.475C377.227 367.244 384.22 359.396 390.714 350.939C397.208 342.482 402.986 333.7 408.056 324.667Z" fill="#E7EAFF"/>
</g>
</svg>
