<svg aria-hidden="true" style="position: absolute; width: 0; height: 0; overflow: hidden;" version="1.1" xmlns="http://www.w3.org/2000/svg" xmlns:xlink="http://www.w3.org/1999/xlink">
<defs>
<symbol id="arrow" viewBox="0 0 43 32">
<path fill="none" stroke="#2155cf" style="stroke: var(--color1, #2155cf)" stroke-linejoin="miter" stroke-linecap="butt" stroke-miterlimit="4" stroke-width="7.1111" d="M38.837 5.47l-17.504 18.234-17.504-18.234"></path>
</symbol>
<symbol id="arrow-btn" viewBox="0 0 32 32">
<path fill="#2155cf" style="fill: var(--color1, #2155cf)" d="M3.2 16c0 7.069 5.731 12.8 12.8 12.8s12.8-5.731 12.8-12.8c0-7.069-5.731-12.8-12.8-12.8s-12.8 5.731-12.8 12.8z"></path>
<path fill="none" stroke="#fff" style="stroke: var(--color2, #fff)" stroke-linejoin="round" stroke-linecap="round" stroke-miterlimit="4" stroke-width="1.28" d="M17.28 13.44l-2.56 2.56 2.56 2.56"></path>
</symbol>
<symbol id="envelope" viewBox="0 0 42 32">
<path d="M3.812 9.619c0.502 0.354 2.017 1.407 4.543 3.158s4.462 3.099 5.807 4.044c0.148 0.104 0.462 0.329 0.942 0.676s0.879 0.628 1.197 0.842c0.318 0.214 0.702 0.454 1.153 0.72s0.876 0.465 1.274 0.598c0.399 0.133 0.768 0.199 1.108 0.199h0.045c0.34 0 0.709-0.066 1.108-0.199s0.824-0.332 1.274-0.598c0.451-0.266 0.835-0.506 1.152-0.72s0.716-0.495 1.197-0.842c0.48-0.348 0.794-0.573 0.942-0.676 1.359-0.945 4.817-3.346 10.372-7.203 1.078-0.753 1.98-1.662 2.703-2.726s1.086-2.179 1.086-3.346c0-0.975-0.351-1.81-1.053-2.505s-1.533-1.042-2.493-1.042h-32.623c-1.138 0-2.013 0.384-2.626 1.152s-0.92 1.729-0.92 2.881c0 0.931 0.406 1.939 1.219 3.025s1.677 1.939 2.593 2.56z"></path>
<path d="M37.499 11.992c-4.846 3.28-8.525 5.829-11.037 7.646-0.842 0.62-1.525 1.105-2.050 1.452s-1.222 0.702-2.094 1.064c-0.872 0.362-1.684 0.543-2.438 0.543h-0.045c-0.754 0-1.566-0.181-2.438-0.543s-1.57-0.716-2.094-1.064c-0.524-0.347-1.208-0.831-2.050-1.452-1.995-1.463-5.666-4.012-11.015-7.646-0.842-0.561-1.589-1.204-2.239-1.928v17.597c0 0.976 0.347 1.81 1.042 2.505s1.529 1.042 2.505 1.042h32.624c0.975 0 1.81-0.347 2.504-1.042s1.042-1.529 1.042-2.505v-17.597c-0.636 0.709-1.374 1.352-2.217 1.928z"></path>
</symbol>
<symbol id="security" viewBox="0 0 32 32">
<path fill="#f1f8fe" style="fill: var(--color10, #f1f8fe)" d="M29.18 5c-5.46 0-9.643-1.56-13.181-5-3.537 3.44-7.72 5-13.18 5 0 8.958-1.853 21.789 13.18 27 15.034-5.211 13.181-18.043 13.181-27zM14.908 20.762l-4.391-4.392 1.966-1.966 2.425 2.426 4.609-4.609 1.966 1.966-6.575 6.575z"></path>
</symbol>
<symbol id="star" viewBox="0 0 34 32">
<path fill="#f7941e" style="fill: var(--color7, #f7941e)" d="M16.924 0.001l4.974 10.163 11.122 1.63-8.048 7.911 1.9 11.17-9.948-5.274-9.948 5.274 1.9-11.17-8.048-7.911 11.122-1.63 4.974-10.163z"></path>
</symbol>
<symbol id="edit" viewBox="0 0 32 32">
<path d="M19.898 5.392l6.51 6.509-16.477 16.477-6.506-6.51 16.474-16.477zM31.347 3.823l-2.903-2.903c-1.122-1.122-2.944-1.122-4.069 0l-2.781 2.781 6.51 6.51 3.244-3.244c0.87-0.87 0.87-2.274 0-3.144zM0.018 31.019c-0.118 0.533 0.363 1.011 0.896 0.881l7.254-1.759-6.506-6.509-1.644 7.387z"></path>
</symbol>
<symbol id="artjoker" viewBox="0 0 102 32">
<path fill="#A0ABC1" style="A0ABC1: var(--color1, #A0ABC1)" d="M102 32v-32h-102v32h102zM64.287 17.457v4.643h-3.549v-18.1h3.549v9.591l2.855-3.214h4.551l-4.989 5.171 5.992 6.551h-4.396l-4.013-4.643zM93.357 13.665c-0.498-0.234-1.105-0.351-1.825-0.351-1.989 0-2.983 1.557-2.983 4.669v4.093h-3.575v-11.724h3.575v2.838c0.291-1.022 0.758-1.791 1.401-2.311 0.642-0.518 1.307-0.777 1.992-0.777 0.788 0 1.475 0.142 2.058 0.425l-0.643 3.138zM75.062 17.383c0.086 0.635 0.424 1.122 1.015 1.454 0.592 0.336 1.239 0.503 1.943 0.503 1.165 0 2.039-0.367 2.623-1.105l2.597 1.733c-1.098 1.591-2.924 2.383-5.478 2.383-1.765 0-3.251-0.573-4.461-1.719-1.209-1.146-1.814-2.623-1.814-4.429 0-1.81 0.605-3.274 1.814-4.395 1.21-1.12 2.696-1.68 4.461-1.68 1.749 0 3.21 0.571 4.386 1.717 1.174 1.146 1.761 2.634 1.761 4.456 0 0.32-0.017 0.678-0.052 1.082h-8.794zM77.786 13.188c0.584 0 1.128 0.173 1.634 0.515 0.504 0.342 0.802 0.841 0.887 1.494h-5.195c0.137-0.669 0.47-1.171 1.002-1.507 0.532-0.333 1.089-0.502 1.672-0.502zM57.382 20.607c-1.21 1.129-2.688 1.696-4.437 1.696s-3.224-0.567-4.423-1.696c-1.2-1.13-1.801-2.598-1.801-4.404 0-1.81 0.601-3.273 1.801-4.396 1.2-1.118 2.675-1.679 4.423-1.679s3.227 0.561 4.437 1.679c1.206 1.123 1.812 2.586 1.812 4.396 0 1.806-0.606 3.274-1.812 4.404zM51.028 14.292c0.523-0.501 1.162-0.753 1.916-0.753s1.398 0.252 1.929 0.753c0.531 0.503 0.797 1.138 0.797 1.909 0 0.802-0.262 1.453-0.784 1.945-0.523 0.493-1.17 0.739-1.942 0.739-0.755 0-1.393-0.246-1.916-0.739s-0.784-1.143-0.784-1.945c0-0.771 0.261-1.406 0.784-1.909zM44.946 7.49c-0.43 0.403-0.952 0.602-1.569 0.602s-1.145-0.199-1.581-0.602c-0.438-0.401-0.656-0.886-0.656-1.456 0-0.567 0.218-1.049 0.656-1.444 0.436-0.39 0.965-0.589 1.581-0.589s1.139 0.199 1.569 0.589c0.428 0.395 0.643 0.877 0.643 1.444 0 0.57-0.215 1.055-0.643 1.456zM45.178 22.905c0 1.64-0.353 2.899-1.055 3.776-0.703 0.88-1.87 1.319-3.497 1.319h-2.187v-3.162h1.57c1.079 0 1.602-0.619 1.568-1.858v-12.602h3.601v12.528zM36.87 22.101h-3.549v-16.216h3.549v4.493h2.744v3.025h-2.744v8.698zM31.412 13.692c-0.497-0.234-1.105-0.351-1.825-0.351-1.989 0-2.983 1.557-2.983 4.668v4.093h-3.574v-11.724h3.574v2.837c0.29-1.022 0.759-1.791 1.401-2.31 0.643-0.518 1.307-0.777 1.993-0.777 0.789 0 1.476 0.141 2.058 0.425l-0.644 3.138zM21.168 22.1h-3.55v-1.331c-0.343 0.504-0.87 0.888-1.582 1.156-0.711 0.268-1.349 0.403-1.914 0.403-1.613 0-3.036-0.564-4.271-1.697-1.234-1.129-1.851-2.599-1.851-4.404 0-1.806 0.618-3.275 1.851-4.405 1.235-1.132 2.658-1.695 4.271-1.695 0.565 0 1.185 0.116 1.863 0.351 0.676 0.234 1.221 0.635 1.633 1.206v-1.306h3.55v11.721zM14.712 13.44c-0.788 0-1.486 0.264-2.095 0.79-0.609 0.528-0.914 1.192-0.914 1.996 0 0.803 0.305 1.469 0.914 1.994 0.609 0.528 1.307 0.792 2.095 0.792 0.772 0 1.449-0.256 2.033-0.767 0.581-0.509 0.874-1.181 0.874-2.019 0-0.837-0.292-1.511-0.874-2.021-0.584-0.511-1.261-0.766-2.033-0.766z"></path>
</symbol>
<symbol id="phone" viewBox="0 0 30 32">
<path d="M29.804 23.143c-0.084-0.255-0.622-0.63-1.612-1.124-0.268-0.156-0.65-0.368-1.145-0.636s-0.944-0.516-1.347-0.743c-0.404-0.226-0.782-0.445-1.135-0.657-0.056-0.042-0.233-0.166-0.53-0.372s-0.548-0.357-0.753-0.456c-0.205-0.099-0.407-0.148-0.605-0.148-0.283 0-0.636 0.202-1.060 0.604s-0.813 0.841-1.167 1.316c-0.353 0.474-0.728 0.912-1.124 1.315s-0.722 0.605-0.976 0.605c-0.128 0-0.287-0.036-0.478-0.106s-0.336-0.131-0.435-0.18c-0.099-0.050-0.268-0.149-0.509-0.298s-0.375-0.23-0.403-0.244c-1.937-1.075-3.599-2.305-4.985-3.691s-2.616-3.048-3.691-4.985c-0.014-0.028-0.096-0.163-0.244-0.403s-0.248-0.41-0.297-0.509c-0.050-0.099-0.11-0.244-0.18-0.435s-0.106-0.35-0.106-0.477c0-0.254 0.202-0.58 0.605-0.976s0.842-0.771 1.315-1.124c0.474-0.353 0.912-0.742 1.315-1.166s0.605-0.778 0.605-1.061c0-0.198-0.050-0.4-0.148-0.605s-0.251-0.456-0.456-0.753c-0.205-0.297-0.329-0.474-0.371-0.53-0.212-0.353-0.431-0.732-0.657-1.135s-0.474-0.852-0.743-1.347c-0.269-0.495-0.481-0.877-0.636-1.145-0.495-0.99-0.869-1.527-1.124-1.612-0.099-0.042-0.248-0.064-0.445-0.064-0.382 0-0.88 0.071-1.496 0.212s-1.1 0.29-1.453 0.446c-0.707 0.297-1.457 1.159-2.249 2.588-0.721 1.329-1.082 2.645-1.082 3.946 0 0.382 0.025 0.753 0.074 1.114s0.138 0.767 0.265 1.22c0.127 0.453 0.23 0.789 0.307 1.008s0.223 0.611 0.435 1.177c0.212 0.566 0.339 0.912 0.382 1.039 0.495 1.386 1.082 2.623 1.761 3.712 1.117 1.81 2.641 3.681 4.571 5.611s3.801 3.454 5.611 4.572c1.089 0.679 2.327 1.265 3.712 1.761 0.127 0.042 0.474 0.169 1.039 0.382s0.958 0.357 1.177 0.435c0.219 0.078 0.555 0.18 1.007 0.308s0.859 0.216 1.22 0.266c0.361 0.049 0.732 0.074 1.114 0.074 1.301 0 2.617-0.361 3.946-1.082 1.428-0.792 2.291-1.541 2.588-2.249 0.156-0.353 0.304-0.838 0.445-1.453s0.212-1.113 0.212-1.495c0-0.199-0.021-0.347-0.064-0.447z"></path>
</symbol>
<symbol id="home" viewBox="0 0 32 32">
<path fill="#2155cf" style="fill: var(--color1, #2155cf)" d="M31.824 14.602l-15.824-14.602-15.824 14.602c-0.223 0.206-0.236 0.553-0.029 0.775 0.206 0.222 0.557 0.234 0.78 0.029l1.831-1.69v18.284h26.483v-18.285l1.831 1.69c0.106 0.098 0.241 0.146 0.376 0.146 0.148 0 0.296-0.059 0.404-0.175 0.208-0.222 0.195-0.569-0.028-0.775zM12.689 30.903v-8.772c0-1.814 1.485-3.29 3.31-3.29s3.31 1.475 3.31 3.29v8.772h-6.621zM28.138 30.903h-7.724v-8.772c0-2.419-1.98-4.386-4.414-4.386s-4.414 1.968-4.414 4.386v8.772h-7.724v-18.207l12.138-11.201 12.138 11.201v18.207z"></path>
</symbol>
<symbol id="garanty" viewBox="0 0 26 32">
<path fill="#2155cf" style="fill: var(--color1, #2155cf)" d="M24.601 6.479l-12.027-6.409c-0.178-0.095-0.392-0.094-0.569 0.003l-11.694 6.409c-0.192 0.105-0.311 0.306-0.311 0.525v8.371c0.007 6.881 4.084 13.107 10.389 15.864l1.623 0.707c0.152 0.066 0.324 0.066 0.476 0.001l1.829-0.79c6.422-2.697 10.6-8.983 10.601-15.948v-8.205c0-0.221-0.122-0.425-0.317-0.529zM23.721 15.213c-0.001 6.485-3.892 12.337-9.872 14.846l-0.004 0.002-1.593 0.688-1.384-0.604c-5.869-2.566-9.664-8.361-9.671-14.766v-8.017l11.1-6.083 11.424 6.087v7.846z"></path>
<path fill="#2155cf" style="fill: var(--color1, #2155cf)" d="M7.879 14.991c-0.215-0.252-0.593-0.281-0.844-0.066s-0.281 0.593-0.066 0.844l3.163 3.704c0.211 0.247 0.581 0.281 0.833 0.076l7.366-5.993c0.257-0.209 0.295-0.586 0.086-0.842s-0.586-0.295-0.842-0.087l-6.912 5.623-2.783-3.259z"></path>
</symbol>
<symbol id="sand-clock" viewBox="0 0 27 32">
<path fill="#2155cf" style="fill: var(--color1, #2155cf)" d="M25.999 30.775h-1.592v-2.122h-2.653v-5.424c0-1.433-0.712-2.763-1.904-3.558l-5.629-3.752 5.629-3.752c1.192-0.795 1.904-2.126 1.904-3.558v-5.424h2.653v-2.122h1.592c0.293 0 0.531-0.237 0.531-0.531s-0.238-0.531-0.531-0.531h-25.469c-0.293 0-0.531 0.237-0.531 0.531s0.238 0.531 0.531 0.531h1.592v2.122h2.653v5.424c0 1.433 0.712 2.763 1.904 3.558l5.629 3.752-5.629 3.752c-1.192 0.795-1.904 2.126-1.904 3.558v5.424h-2.653v2.122h-1.592c-0.293 0-0.531 0.237-0.531 0.531s0.238 0.531 0.531 0.531h25.469c0.293 0 0.531-0.237 0.531-0.531s-0.238-0.531-0.531-0.531zM3.184 2.122v-1.061h20.163v1.061h-20.163zM7.268 11.283c-0.896-0.598-1.432-1.598-1.432-2.675v-5.424h14.857v5.424c0 1.077-0.535 2.077-1.432 2.675l-5.997 3.998-5.997-3.998zM5.837 23.229c0-1.077 0.535-2.077 1.432-2.675l5.997-3.998 5.997 3.998c0.896 0.598 1.432 1.598 1.432 2.675v5.424h-14.857v-5.424zM3.184 29.713h20.163v1.061h-20.163v-1.061z"></path>
</symbol>
<symbol id="money" viewBox="0 0 32 32">
<path fill="#2155cf" style="fill: var(--color1, #2155cf)" d="M23.766 23.851h-22.827v-15.917h3.697c0.259 0 0.469-0.21 0.469-0.469s-0.21-0.469-0.469-0.469h-4.167c-0.259 0-0.469 0.21-0.469 0.469v16.856c0 0.259 0.21 0.469 0.469 0.469h4.083l1.749 3.771c0.108 0.232 0.391 0.336 0.623 0.228l1.712-0.794 5.191 3.704c0.208 0.149 0.506 0.099 0.655-0.109l4.852-6.8h4.431c0.259 0 0.47-0.21 0.47-0.469s-0.21-0.469-0.47-0.469zM5.587 24.79h7.73l-6.362 2.95-1.368-2.95zM13.992 30.662l-4.375-3.121 5.933-2.751h2.632l-4.19 5.872z"></path>
<path fill="#2155cf" style="fill: var(--color1, #2155cf)" d="M31.531 6.995h-4.083l-1.749-3.771c-0.107-0.232-0.391-0.336-0.623-0.228l-1.712 0.794-5.191-3.704c-0.208-0.148-0.506-0.099-0.655 0.11l-4.852 6.8h-6.153c-0.259 0-0.469 0.21-0.469 0.469s0.21 0.469 0.469 0.469h6.394c0 0 0 0 0 0s0-0 0.001-0h14.239c0.001 0 0.001 0 0.002 0s0.002-0 0.002-0h3.911v15.917h-5.419c-0.259 0-0.469 0.21-0.469 0.469s0.21 0.469 0.469 0.469h5.888c0.259 0 0.469-0.21 0.469-0.469v-16.856c0-0.259-0.21-0.469-0.469-0.469zM26.413 6.995h-7.73l6.362-2.95 1.368 2.95zM18.009 1.123l4.375 3.121-5.933 2.751h-2.632l4.19-5.873z"></path>
<path fill="#2155cf" style="fill: var(--color1, #2155cf)" d="M15.988 20.469c2.471 0 4.48-2.010 4.48-4.48s-2.010-4.48-4.48-4.48c-2.47 0-4.48 2.010-4.48 4.48s2.010 4.48 4.48 4.48zM15.988 12.447c1.953 0 3.541 1.589 3.541 3.541s-1.589 3.541-3.541 3.541c-1.953 0-3.541-1.589-3.541-3.541s1.589-3.541 3.541-3.541z"></path>
<path fill="#2155cf" style="fill: var(--color1, #2155cf)" d="M12.026 22.489h14.3c0.259 0 0.47-0.21 0.47-0.469 0-1.182 1.192-2.342 2.406-2.342 0.259 0 0.47-0.21 0.47-0.47v-6.633c0-0.259-0.21-0.469-0.47-0.469-1.214 0-2.406-1.16-2.406-2.342 0-0.259-0.21-0.469-0.47-0.469h-20.908c-0.259 0-0.469 0.21-0.469 0.469 0 1.254-1.005 2.354-2.151 2.354-0.259 0-0.469 0.21-0.469 0.469v6.608c0 0.259 0.21 0.469 0.469 0.469 1.146 0 2.151 1.1 2.151 2.354 0 0.259 0.21 0.47 0.469 0.47h4.73c0.259 0 0.469-0.21 0.469-0.47s-0.21-0.469-0.469-0.469h-4.295c-0.098-0.659-0.396-1.296-0.852-1.801-0.481-0.533-1.084-0.872-1.733-0.983v-5.748c0.649-0.111 1.252-0.45 1.733-0.983 0.456-0.505 0.754-1.143 0.852-1.801h20.045c0.237 1.349 1.458 2.544 2.834 2.772v5.772c-1.376 0.228-2.597 1.423-2.834 2.772h-13.872c-0.259 0-0.469 0.21-0.469 0.47s0.21 0.47 0.469 0.47z"></path>
</symbol>
<symbol id="menu" viewBox="0 0 48 32">
<path d="M48 3.2h-48v-3.2h48v3.2z"></path>
<path d="M48 17.6h-48v-3.2h48v3.2z"></path>
<path d="M48 32h-48v-3.2h48v3.2z"></path>
</symbol>
<symbol id="plus" viewBox="0 0 32 32">
<path fill="#2155cf" style="fill: var(--color1, #2155cf)" d="M32 16c0 8.837-7.163 16-16 16s-16-7.163-16-16c0-8.837 7.163-16 16-16s16 7.163 16 16z"></path>
<path fill="#fff" style="fill: var(--color2, #fff)" d="M15 23h2v-6h6v-2h-6v-6h-2v6h-6v2h6v6z"></path>
</symbol>
<symbol id="down-arrow" viewBox="0 0 51 32">
<path fill="none" stroke-linejoin="miter" stroke-linecap="butt" stroke-miterlimit="4" stroke-width="6.4" d="M3.2 3.2l22.4 22.4 22.4-22.4"></path>
</symbol>
<symbol id="open-icon" viewBox="0 0 32 32">
<path fill="#2155cf" style="fill: var(--color1, #2155cf)" d="M30.545 0h-11.636c-0.803 0-1.455 0.651-1.455 1.455s0.651 1.455 1.455 1.455h8.125l-14.971 14.972c-0.568 0.568-0.568 1.489 0 2.057 0.284 0.284 0.656 0.426 1.028 0.426s0.745-0.142 1.029-0.426l14.972-14.971v8.125c0 0.803 0.651 1.455 1.455 1.455s1.454-0.651 1.454-1.455v-11.636c0-0.803-0.651-1.455-1.455-1.455z"></path>
<path fill="#2155cf" style="fill: var(--color1, #2155cf)" d="M24.727 14.545c-0.803 0-1.455 0.651-1.455 1.455v13.091h-20.364v-20.364h13.091c0.803 0 1.455-0.651 1.455-1.455s-0.651-1.455-1.455-1.455h-14.545c-0.803 0-1.455 0.651-1.455 1.455v23.273c0 0.803 0.651 1.455 1.455 1.455h23.273c0.803 0 1.455-0.651 1.455-1.455v-14.546c-0-0.803-0.651-1.455-1.455-1.455z"></path>
</symbol>
</defs>
</svg>
