<svg aria-hidden="true" style="position: absolute; width: 0; height: 0; overflow: hidden;" version="1.1" xmlns="http://www.w3.org/2000/svg" xmlns:xlink="http://www.w3.org/1999/xlink">
<defs>
<symbol id="application" viewBox="0 0 36 32">
<path fill="#fff" style="fill: var(--color1, #fff)" d="M33.916 2.632h-31.86v28.794h31.86v-28.794z"></path>
<path fill="#e7eaff" style="fill: var(--color2, #e7eaff)" d="M4.101 2.632h-2.045v28.794h2.045v-28.794z"></path>
<path fill="#2155cf" style="fill: var(--color3, #2155cf)" d="M33.916 2.632h-31.86v4.089h31.86v-4.089z"></path>
<path fill="#1c3f8e" style="fill: var(--color4, #1c3f8e)" d="M4.101 2.632h-2.045v4.089h2.045v-4.089z"></path>
<path fill="#a0abc1" style="fill: var(--color5, #a0abc1)" d="M19.562 28.359h-3.152c-0.87 0-1.576-0.687-1.576-1.533s0.706-1.533 1.576-1.533h3.152c0.87 0 1.576 0.686 1.576 1.533s-0.706 1.533-1.576 1.533z"></path>
<path fill="#8a93a4" style="fill: var(--color6, #8a93a4)" d="M20.093 27.319h-3.155c-0.871 0-1.577-0.698-1.577-1.559 0-0.043 0.002-0.085 0.006-0.127-0.326 0.286-0.531 0.702-0.531 1.167 0 0.861 0.706 1.559 1.577 1.559h3.155c0.828 0 1.506-0.63 1.572-1.432-0.278 0.244-0.645 0.392-1.046 0.392z"></path>
<path fill="#a0abc1" style="fill: var(--color5, #a0abc1)" d="M26.25 12.854h-16.527v10.393h16.527v-10.393z"></path>
<path fill="#f7941e" style="fill: var(--color7, #f7941e)" d="M21.99 18.306l2.162 8.073 2.163-2.202 3.604 3.67 1.442-1.468-3.604-3.67 2.163-2.202-7.929-2.202z"></path>
<path fill="#ce7b18" style="fill: var(--color8, #ce7b18)" d="M26.283 22.658l-1.515 1.341-1.655-5.382-1.124-0.311 2.172 8.073 2.172-2.202 3.621 3.67 0.724-0.734-4.396-4.456z"></path>
<path fill="#0a2c7d" style="fill: var(--color9, #0a2c7d)" d="M33.945 2.121h-31.917c-0.267 0-0.483 0.216-0.483 0.483v28.85c0 0.267 0.216 0.483 0.483 0.483h31.917c0.267 0 0.483-0.216 0.483-0.483v-28.85c0-0.267-0.216-0.483-0.483-0.483zM2.51 30.97v-23.762h3.228c0.267 0 0.483-0.216 0.483-0.483s-0.216-0.483-0.483-0.483h-3.228v-3.155h30.952v3.155h-25.493c-0.267 0-0.483 0.216-0.483 0.483s0.216 0.483 0.483 0.483h25.493v23.762h-30.952z"></path>
<path fill="#0a2c7d" style="fill: var(--color9, #0a2c7d)" d="M19.619 24.781h-3.094c-1.12 0-2.031 0.917-2.031 2.044s0.911 2.044 2.031 2.044h3.094c1.12 0 2.031-0.917 2.031-2.044s-0.911-2.044-2.031-2.044zM19.619 27.896h-3.094c-0.587 0-1.064-0.48-1.064-1.071s0.477-1.071 1.064-1.071h3.094c0.587 0 1.064 0.48 1.064 1.071s-0.477 1.071-1.064 1.071z"></path>
<path fill="#fff" style="fill: var(--color1, #fff)" d="M29.796 5.187h0.064c0.265 0 0.479-0.229 0.479-0.511s-0.215-0.511-0.479-0.511h-0.064c-0.265 0-0.479 0.229-0.479 0.511s0.215 0.511 0.479 0.511z"></path>
<path fill="#f7941e" style="fill: var(--color7, #f7941e)" d="M31.84 5.187h0.064c0.265 0 0.479-0.229 0.479-0.511s-0.215-0.511-0.479-0.511h-0.064c-0.265 0-0.479 0.229-0.479 0.511s0.215 0.511 0.479 0.511z"></path>
<path fill="#fff" style="fill: var(--color1, #fff)" d="M27.58 5.187h0.064c0.265 0 0.479-0.229 0.479-0.511s-0.215-0.511-0.479-0.511h-0.064c-0.265 0-0.479 0.229-0.479 0.511s0.215 0.511 0.479 0.511z"></path>
<path fill="#0a2c7d" style="fill: var(--color9, #0a2c7d)" d="M28.421 22.739l1.849-1.857c0.258-0.26 0.137-0.717-0.215-0.813l-3.347-0.917v-6.322c0-0.269-0.217-0.486-0.484-0.486h-16.527c-0.267 0-0.484 0.218-0.484 0.486v10.376c0 0.269 0.217 0.486 0.484 0.486h13.149l0.772 2.843c0.096 0.354 0.551 0.476 0.809 0.216l1.849-1.857 3.31 3.324c0.186 0.187 0.498 0.187 0.685 0l1.461-1.467c0.189-0.19 0.189-0.498 0-0.688l-3.309-3.324zM10.18 22.719v-9.403h15.559v5.57l-3.719-1.019c-0.355-0.097-0.691 0.241-0.595 0.597l1.155 4.254h-12.4zM29.927 27.187l-3.31-3.324c-0.186-0.187-0.498-0.187-0.685 0l-1.601 1.608-1.749-6.441 6.412 1.757-1.601 1.609c-0.189 0.19-0.189 0.498 0 0.688l3.309 3.324-0.776 0.779z"></path>
<path fill="#0a2c7d" style="fill: var(--color9, #0a2c7d)" d="M9.701 11.321h10.437c0.27 0 0.489-0.229 0.489-0.511s-0.219-0.511-0.489-0.511h-10.437c-0.27 0-0.489 0.229-0.489 0.511s0.219 0.511 0.489 0.511z"></path>
<path fill="#0a2c7d" style="fill: var(--color9, #0a2c7d)" d="M21.622 11.321h5.165c0.267 0 0.484-0.229 0.484-0.511s-0.217-0.511-0.484-0.511h-5.165c-0.267 0-0.484 0.229-0.484 0.511s0.217 0.511 0.484 0.511z"></path>
</symbol>
<symbol id="menu" viewBox="0 0 48 32">
<path d="M48 3.2h-48v-3.2h48v3.2z"></path>
<path d="M48 17.6h-48v-3.2h48v3.2z"></path>
<path d="M48 32h-48v-3.2h48v3.2z"></path>
</symbol>
</defs>
</svg>
