<svg width="170" height="145" viewBox="0 0 170 145" fill="none" xmlns="http://www.w3.org/2000/svg">
<path d="M153.684 11.9248H9.31641V142.396H153.684V11.9248Z" fill="white"/>
<path d="M18.5807 11.9248H9.31641V142.396H18.5807V11.9248Z" fill="#E7EAFF"/>
<path d="M153.813 9.60889H9.18698C7.97927 9.60889 7 10.5889 7 11.7975V142.524C7 143.733 7.97927 144.713 9.18698 144.713H153.813C155.021 144.713 156 143.733 156 142.524V11.7975C156 10.5889 155.02 9.60889 153.813 9.60889ZM11.3737 140.335V32.6612H26.0015C27.2092 32.6612 28.1885 31.6812 28.1885 30.4726C28.1885 29.264 27.2092 28.284 26.0015 28.284H11.3737V13.9858H151.626V28.284H36.1097C34.9019 28.284 33.9227 29.264 33.9227 30.4726C33.9227 31.6812 34.9019 32.6612 36.1097 32.6612H151.626V140.335H11.3737Z" fill="#0A2C7D"/>
<path d="M18.5807 11.9248H9.31641V30.4533H18.5807V11.9248Z" fill="#1C3F8E"/>
<path d="M153.684 11.9248H9.31641V30.4533H153.684V11.9248Z" fill="#2155CF"/>
<path d="M88.6423 128.5H74.3599C70.4159 128.5 67.2188 125.389 67.2188 121.552C67.2188 117.714 70.4159 114.604 74.3599 114.604H88.6423C92.5864 114.604 95.7835 117.714 95.7835 121.552C95.7835 125.389 92.5864 128.5 88.6423 128.5Z" fill="#A0ABC1"/>
<path d="M91.0441 123.79H76.749C72.8014 123.79 69.6014 120.627 69.6014 116.725C69.6014 116.53 69.6115 116.338 69.6269 116.148C68.1503 117.443 67.2188 119.331 67.2188 121.435C67.2188 125.337 70.4188 128.5 74.3663 128.5H88.6615C92.4126 128.5 95.4863 125.644 95.7835 122.012C94.5218 123.118 92.8629 123.79 91.0441 123.79Z" fill="#8A93A4"/>
<path d="M118.943 58.2461H44.0566V105.339H118.943V58.2461Z" fill="#A0ABC1"/>
<path d="M99.6426 82.9507L109.441 119.533L119.24 109.555L135.571 126.184L142.104 119.533L125.772 102.904L135.571 92.9274L99.6426 82.9507Z" fill="#F7941E"/>
<path d="M119.096 102.668L112.232 108.743L104.734 84.358L99.6426 82.9507L109.486 119.533L119.329 109.555L135.735 126.184L139.016 122.858L119.096 102.668Z" fill="#CE7B18"/>
<path d="M88.897 112.288H74.8755C69.8018 112.288 65.6738 116.444 65.6738 121.552C65.6738 126.66 69.8018 130.816 74.8755 130.816H88.897C93.9707 130.816 98.0987 126.66 98.0987 121.552C98.0987 116.444 93.9707 112.288 88.897 112.288ZM88.897 126.404H74.8755C72.2178 126.404 70.0557 124.227 70.0557 121.552C70.0557 118.876 72.2178 116.699 74.8755 116.699H88.897C91.5547 116.699 93.7168 118.876 93.7168 121.552C93.7168 124.227 91.5547 126.404 88.897 126.404Z" fill="#0A2C7D"/>
<path d="M135.011 23.5052H135.301C136.5 23.5052 137.472 22.4681 137.472 21.1891C137.472 19.9101 136.5 18.873 135.301 18.873H135.011C133.812 18.873 132.84 19.9101 132.84 21.1891C132.84 22.4681 133.812 23.5052 135.011 23.5052Z" fill="white"/>
<path d="M144.275 23.5052H144.564C145.763 23.5052 146.736 22.4681 146.736 21.1891C146.736 19.9101 145.763 18.873 144.564 18.873H144.275C143.076 18.873 142.104 19.9101 142.104 21.1891C142.104 22.4681 143.076 23.5052 144.275 23.5052Z" fill="#F7941E"/>
<path d="M124.974 23.5052H125.264C126.463 23.5052 127.435 22.4681 127.435 21.1891C127.435 19.9101 126.463 18.873 125.264 18.873H124.974C123.775 18.873 122.803 19.9101 122.803 21.1891C122.803 22.4681 123.775 23.5052 124.974 23.5052Z" fill="white"/>
<path d="M128.782 103.034L137.159 94.6195C138.33 93.4435 137.779 91.3715 136.185 90.9349L121.019 86.7798V58.1341C121.019 56.917 120.036 55.9302 118.825 55.9302H43.9363C42.7246 55.9302 41.7422 56.917 41.7422 58.1341V105.149C41.7422 106.366 42.7246 107.353 43.9363 107.353H103.516L107.014 120.236C107.449 121.838 109.512 122.391 110.682 121.215L119.06 112.8L134.057 127.863C134.902 128.712 136.314 128.712 137.159 127.863L143.778 121.215C144.635 120.354 144.635 118.959 143.778 118.098L128.782 103.034ZM46.1301 102.945V60.338H116.631V85.5777L99.7791 80.9614C98.1716 80.5209 96.6467 82.0527 97.0852 83.6674L102.319 102.945L46.1301 102.945ZM135.608 123.189L120.611 108.125C119.766 107.276 118.354 107.276 117.509 108.125L110.253 115.413L102.329 86.2291L131.383 94.1884L124.128 101.477C123.271 102.337 123.271 103.733 124.128 104.593L139.124 119.657L135.608 123.189Z" fill="#0A2C7D"/>
<path d="M43.9591 51.2981H91.2507C92.4749 51.2981 93.4676 50.2611 93.4676 48.9821C93.4676 47.7031 92.4749 46.666 91.2507 46.666H43.9591C42.7348 46.666 41.7422 47.7031 41.7422 48.9821C41.7422 50.2611 42.7346 51.2981 43.9591 51.2981Z" fill="#0A2C7D"/>
<path d="M97.9755 51.2981H121.38C122.591 51.2981 123.574 50.2611 123.574 48.9821C123.574 47.7031 122.591 46.666 121.38 46.666H97.9755C96.7638 46.666 95.7812 47.7031 95.7812 48.9821C95.7812 50.2611 96.7635 51.2981 97.9755 51.2981Z" fill="#0A2C7D"/>
</svg>
