<svg aria-hidden="true" style="position: absolute; width: 0; height: 0; overflow: hidden;" version="1.1" xmlns="http://www.w3.org/2000/svg" xmlns:xlink="http://www.w3.org/1999/xlink">
<defs>
<symbol id="arrow" viewBox="0 0 43 32">
<path fill="none" stroke="#2155cf" style="stroke: var(--color1, #2155cf)" stroke-linejoin="miter" stroke-linecap="butt" stroke-miterlimit="4" stroke-width="7.1111" d="M38.837 5.47l-17.504 18.234-17.504-18.234"></path>
</symbol>
<symbol id="arrow-btn" viewBox="0 0 32 32">
<path fill="#2155cf" style="fill: var(--color1, #2155cf)" d="M3.2 16c0 7.069 5.731 12.8 12.8 12.8s12.8-5.731 12.8-12.8c0-7.069-5.731-12.8-12.8-12.8s-12.8 5.731-12.8 12.8z"></path>
<path fill="none" stroke="#fff" style="stroke: var(--color2, #fff)" stroke-linejoin="round" stroke-linecap="round" stroke-miterlimit="4" stroke-width="1.28" d="M17.28 13.44l-2.56 2.56 2.56 2.56"></path>
</symbol>
<symbol id="application" viewBox="0 0 38 32">
<path fill="#fff" style="fill: var(--color2, #fff)" d="M33.916 2.632h-31.86v28.794h31.86v-28.794z"></path>
<path fill="#e7eaff" style="fill: var(--color3, #e7eaff)" d="M4.101 2.632h-2.045v28.794h2.045v-28.794z"></path>
<path fill="#2155cf" style="fill: var(--color1, #2155cf)" d="M33.916 2.632h-31.86v4.089h31.86v-4.089z"></path>
<path fill="#1c3f8e" style="fill: var(--color4, #1c3f8e)" d="M4.101 2.632h-2.045v4.089h2.045v-4.089z"></path>
<path fill="#a0abc1" style="fill: var(--color5, #a0abc1)" d="M19.562 28.359h-3.152c-0.87 0-1.576-0.687-1.576-1.533s0.706-1.533 1.576-1.533h3.152c0.87 0 1.576 0.686 1.576 1.533s-0.706 1.533-1.576 1.533z"></path>
<path fill="#8a93a4" style="fill: var(--color6, #8a93a4)" d="M20.093 27.319h-3.155c-0.871 0-1.577-0.698-1.577-1.559 0-0.043 0.002-0.085 0.006-0.127-0.326 0.286-0.531 0.702-0.531 1.167 0 0.861 0.706 1.559 1.577 1.559h3.155c0.828 0 1.506-0.63 1.572-1.432-0.278 0.244-0.645 0.392-1.046 0.392z"></path>
<path fill="#a0abc1" style="fill: var(--color5, #a0abc1)" d="M26.25 12.854h-16.527v10.393h16.527v-10.393z"></path>
<path fill="#f7941e" style="fill: var(--color7, #f7941e)" d="M21.99 18.306l2.162 8.073 2.163-2.202 3.604 3.67 1.442-1.468-3.604-3.67 2.163-2.202-7.929-2.202z"></path>
<path fill="#ce7b18" style="fill: var(--color8, #ce7b18)" d="M26.283 22.658l-1.515 1.341-1.655-5.382-1.124-0.311 2.172 8.073 2.172-2.202 3.621 3.67 0.724-0.734-4.396-4.456z"></path>
<path fill="#0a2c7d" style="fill: var(--color9, #0a2c7d)" d="M33.945 2.121h-31.917c-0.267 0-0.483 0.216-0.483 0.483v28.85c0 0.267 0.216 0.483 0.483 0.483h31.917c0.267 0 0.483-0.216 0.483-0.483v-28.85c0-0.267-0.216-0.483-0.483-0.483zM2.51 30.97v-23.762h3.228c0.267 0 0.483-0.216 0.483-0.483s-0.216-0.483-0.483-0.483h-3.228v-3.155h30.952v3.155h-25.493c-0.267 0-0.483 0.216-0.483 0.483s0.216 0.483 0.483 0.483h25.493v23.762h-30.952z"></path>
<path fill="#0a2c7d" style="fill: var(--color9, #0a2c7d)" d="M19.619 24.781h-3.094c-1.12 0-2.031 0.917-2.031 2.044s0.911 2.044 2.031 2.044h3.094c1.12 0 2.031-0.917 2.031-2.044s-0.911-2.044-2.031-2.044zM19.619 27.896h-3.094c-0.587 0-1.064-0.48-1.064-1.071s0.477-1.071 1.064-1.071h3.094c0.587 0 1.064 0.48 1.064 1.071s-0.477 1.071-1.064 1.071z"></path>
<path fill="#fff" style="fill: var(--color2, #fff)" d="M29.796 5.187h0.064c0.265 0 0.479-0.229 0.479-0.511s-0.215-0.511-0.479-0.511h-0.064c-0.265 0-0.479 0.229-0.479 0.511s0.215 0.511 0.479 0.511z"></path>
<path fill="#f7941e" style="fill: var(--color7, #f7941e)" d="M31.84 5.187h0.064c0.265 0 0.479-0.229 0.479-0.511s-0.215-0.511-0.479-0.511h-0.064c-0.265 0-0.479 0.229-0.479 0.511s0.215 0.511 0.479 0.511z"></path>
<path fill="#fff" style="fill: var(--color2, #fff)" d="M27.58 5.187h0.064c0.265 0 0.479-0.229 0.479-0.511s-0.215-0.511-0.479-0.511h-0.064c-0.265 0-0.479 0.229-0.479 0.511s0.215 0.511 0.479 0.511z"></path>
<path fill="#0a2c7d" style="fill: var(--color9, #0a2c7d)" d="M28.421 22.739l1.849-1.857c0.258-0.26 0.137-0.717-0.215-0.813l-3.347-0.917v-6.322c0-0.269-0.217-0.486-0.484-0.486h-16.527c-0.267 0-0.484 0.218-0.484 0.486v10.376c0 0.269 0.217 0.486 0.484 0.486h13.149l0.772 2.843c0.096 0.354 0.551 0.476 0.809 0.216l1.849-1.857 3.31 3.324c0.186 0.187 0.498 0.187 0.685 0l1.461-1.467c0.189-0.19 0.189-0.498 0-0.688l-3.309-3.324zM10.18 22.719v-9.403h15.559v5.57l-3.719-1.019c-0.355-0.097-0.691 0.241-0.595 0.597l1.155 4.254h-12.4zM29.927 27.187l-3.31-3.324c-0.186-0.187-0.498-0.187-0.685 0l-1.601 1.608-1.749-6.441 6.412 1.757-1.601 1.609c-0.189 0.19-0.189 0.498 0 0.688l3.309 3.324-0.776 0.779z"></path>
<path fill="#0a2c7d" style="fill: var(--color9, #0a2c7d)" d="M9.701 11.321h10.437c0.27 0 0.489-0.229 0.489-0.511s-0.219-0.511-0.489-0.511h-10.437c-0.27 0-0.489 0.229-0.489 0.511s0.219 0.511 0.489 0.511z"></path>
<path fill="#0a2c7d" style="fill: var(--color9, #0a2c7d)" d="M21.622 11.321h5.165c0.267 0 0.484-0.229 0.484-0.511s-0.217-0.511-0.484-0.511h-5.165c-0.267 0-0.484 0.229-0.484 0.511s0.217 0.511 0.484 0.511z"></path>
</symbol>
<symbol id="Subtract" viewBox="0 0 85 32">
<path fill="#a0abc1" style="fill: var(--color5, #a0abc1)" d="M11.717 15.039c-0.49 0.425-0.735 0.961-0.735 1.609s0.245 1.184 0.735 1.608c0.49 0.425 1.052 0.638 1.686 0.638 0.621 0 1.166-0.206 1.635-0.617 0.468-0.411 0.703-0.954 0.703-1.628s-0.235-1.217-0.703-1.629c-0.469-0.412-1.014-0.617-1.635-0.617-0.634 0-1.196 0.213-1.686 0.638z"></path>
<path fill="#a0abc1" style="fill: var(--color5, #a0abc1)" d="M44.157 18.792c0.62 0 1.14-0.198 1.562-0.596s0.631-0.921 0.631-1.568c0-0.621-0.214-1.133-0.641-1.539-0.428-0.404-0.945-0.608-1.552-0.608s-1.121 0.204-1.541 0.608c-0.421 0.405-0.631 0.917-0.631 1.539 0 0.647 0.21 1.171 0.631 1.568s0.934 0.596 1.541 0.596z"></path>
<path fill="#a0abc1" style="fill: var(--color5, #a0abc1)" d="M61.989 15.818h4.18c-0.069-0.526-0.308-0.928-0.715-1.204s-0.845-0.416-1.313-0.416c-0.469 0-0.917 0.136-1.344 0.405-0.428 0.27-0.697 0.675-0.807 1.214z"></path>
<path fill="#a0abc1" style="fill: var(--color5, #a0abc1)" d="M85.333 0h-85.333v32h85.333v-32zM15.741 21.383v-1.072c-0.276 0.405-0.7 0.715-1.273 0.931-0.572 0.216-1.085 0.324-1.54 0.324-1.297 0-2.442-0.454-3.435-1.366s-1.49-2.095-1.49-3.551c0-1.457 0.496-2.641 1.49-3.552s2.138-1.365 3.435-1.365c0.455 0 0.955 0.094 1.5 0.283 0.544 0.189 0.981 0.512 1.313 0.971v-1.052h2.855v9.45h-2.855zM22.968 21.383h-2.875v-9.451h2.875v2.288c0.234-0.824 0.61-1.444 1.128-1.863 0.516-0.417 1.052-0.626 1.603-0.626 0.635 0 1.187 0.114 1.656 0.343l-0.518 2.53c-0.4-0.189-0.889-0.283-1.468-0.283-1.6 0-2.4 1.255-2.4 3.764v3.299zM31.227 11.932h2.206v2.439h-2.206v7.011h-2.855v-13.072h2.855v3.622zM32.489 23.589h1.263c0.868 0 1.289-0.499 1.262-1.498v-10.159h2.896v10.099c0 1.321-0.283 2.336-0.848 3.045s-1.504 1.062-2.813 1.062h-1.759v-2.549zM34.662 8.432c0-0.458 0.174-0.846 0.527-1.165 0.352-0.315 0.775-0.475 1.272-0.475s0.917 0.159 1.263 0.475c0.344 0.318 0.517 0.707 0.517 1.165s-0.173 0.849-0.517 1.173c-0.345 0.325-0.766 0.486-1.263 0.486s-0.92-0.161-1.272-0.486c-0.352-0.324-0.527-0.714-0.527-1.173zM47.726 20.179c-0.973 0.91-2.163 1.366-3.569 1.366s-2.593-0.456-3.558-1.366c-0.966-0.911-1.449-2.095-1.449-3.551 0-1.458 0.483-2.639 1.449-3.543 0.965-0.902 2.151-1.354 3.558-1.354s2.596 0.452 3.569 1.354c0.971 0.904 1.458 2.085 1.458 3.543 0 1.456-0.487 2.64-1.458 3.551zM53.281 21.382h-2.854v-14.59h2.854v7.732l2.296-2.591h3.661l-4.013 4.168 4.82 5.282h-3.538l-3.226-3.743v3.743zM66.437 18.267l2.088 1.396c-0.883 1.282-2.352 1.921-4.406 1.921-1.42 0-2.616-0.461-3.588-1.385s-1.459-2.115-1.459-3.571c0-1.458 0.486-2.639 1.459-3.543 0.973-0.902 2.169-1.354 3.588-1.354 1.407 0 2.583 0.461 3.528 1.385s1.417 2.123 1.417 3.592c0 0.258-0.014 0.546-0.042 0.872h-7.074c0.068 0.512 0.341 0.904 0.816 1.173 0.476 0.27 0.997 0.405 1.562 0.405 0.938 0 1.64-0.296 2.11-0.89zM72.796 21.362h-2.875v-9.45h2.875v2.287c0.234-0.824 0.61-1.444 1.127-1.863 0.517-0.417 1.052-0.626 1.603-0.626 0.634 0 1.186 0.114 1.656 0.343l-0.518 2.53c-0.4-0.189-0.889-0.283-1.468-0.283-1.599 0-2.4 1.254-2.4 3.764v3.299z"></path>
</symbol>
<symbol id="envelope" viewBox="0 0 42 32">
<path fill="#a0abc1" style="fill: var(--color5, #a0abc1)" d="M3.812 9.619c0.502 0.354 2.017 1.407 4.543 3.158s4.462 3.099 5.807 4.044c0.148 0.104 0.462 0.329 0.942 0.676s0.879 0.628 1.197 0.842c0.318 0.214 0.702 0.454 1.153 0.72s0.876 0.465 1.274 0.598c0.399 0.133 0.768 0.199 1.108 0.199h0.045c0.34 0 0.709-0.066 1.108-0.199s0.824-0.332 1.274-0.598c0.451-0.266 0.835-0.506 1.152-0.72s0.716-0.495 1.197-0.842c0.48-0.348 0.794-0.573 0.942-0.676 1.359-0.945 4.817-3.346 10.372-7.203 1.078-0.753 1.98-1.662 2.703-2.726s1.086-2.179 1.086-3.346c0-0.975-0.351-1.81-1.053-2.505s-1.533-1.042-2.493-1.042h-32.623c-1.138 0-2.013 0.384-2.626 1.152s-0.92 1.729-0.92 2.881c0 0.931 0.406 1.939 1.219 3.025s1.677 1.939 2.593 2.56z"></path>
<path fill="#a0abc1" style="fill: var(--color5, #a0abc1)" d="M37.499 11.992c-4.846 3.28-8.525 5.829-11.037 7.646-0.842 0.62-1.525 1.105-2.050 1.452s-1.222 0.702-2.094 1.064c-0.872 0.362-1.684 0.543-2.438 0.543h-0.045c-0.754 0-1.566-0.181-2.438-0.543s-1.57-0.716-2.094-1.064c-0.524-0.347-1.208-0.831-2.050-1.452-1.995-1.463-5.666-4.012-11.015-7.646-0.842-0.561-1.589-1.204-2.239-1.928v17.597c0 0.976 0.347 1.81 1.042 2.505s1.529 1.042 2.505 1.042h32.624c0.975 0 1.81-0.347 2.504-1.042s1.042-1.529 1.042-2.505v-17.597c-0.636 0.709-1.374 1.352-2.217 1.928z"></path>
</symbol>
<symbol id="security" viewBox="0 0 32 32">
<path fill="#f1f8fe" style="fill: var(--color10, #f1f8fe)" d="M29.18 5c-5.46 0-9.643-1.56-13.181-5-3.537 3.44-7.72 5-13.18 5 0 8.958-1.853 21.789 13.18 27 15.034-5.211 13.181-18.043 13.181-27zM14.908 20.762l-4.391-4.392 1.966-1.966 2.425 2.426 4.609-4.609 1.966 1.966-6.575 6.575z"></path>
</symbol>
<symbol id="star" viewBox="0 0 34 32">
<path fill="#f7941e" style="fill: var(--color7, #f7941e)" d="M16.924 0.001l4.974 10.163 11.122 1.63-8.048 7.911 1.9 11.17-9.948-5.274-9.948 5.274 1.9-11.17-8.048-7.911 11.122-1.63 4.974-10.163z"></path>
</symbol>
<symbol id="edit" viewBox="0 0 32 32">
<path d="M19.898 5.392l6.51 6.509-16.477 16.477-6.506-6.51 16.474-16.477zM31.347 3.823l-2.903-2.903c-1.122-1.122-2.944-1.122-4.069 0l-2.781 2.781 6.51 6.51 3.244-3.244c0.87-0.87 0.87-2.274 0-3.144zM0.018 31.019c-0.118 0.533 0.363 1.011 0.896 0.881l7.254-1.759-6.506-6.509-1.644 7.387z"></path>
</symbol>
</defs>
</svg>
